<?xml version="1.0" standalone="no"?><svg xmlns="http://www.w3.org/2000/svg" viewBox="0 0 1440 320"><path fill="#363334" fill-opacity="1" d="M0,32L14.1,42.7C28.2,53,56,75,85,117.3C112.9,160,141,224,169,218.7C197.6,213,226,139,254,133.3C282.4,128,311,192,339,181.3C367.1,171,395,85,424,90.7C451.8,96,480,192,508,218.7C536.5,245,565,203,593,197.3C621.2,192,649,224,678,213.3C705.9,203,734,149,762,154.7C790.6,160,819,224,847,256C875.3,288,904,288,932,245.3C960,203,988,117,1016,90.7C1044.7,64,1073,96,1101,138.7C1129.4,181,1158,235,1186,266.7C1214.1,299,1242,309,1271,309.3C1298.8,309,1327,299,1355,298.7C1383.5,299,1412,309,1426,314.7L1440,320L1440,0L1425.9,0C1411.8,0,1384,0,1355,0C1327.1,0,1299,0,1271,0C1242.4,0,1214,0,1186,0C1157.6,0,1129,0,1101,0C1072.9,0,1045,0,1016,0C988.2,0,960,0,932,0C903.5,0,875,0,847,0C818.8,0,791,0,762,0C734.1,0,706,0,678,0C649.4,0,621,0,593,0C564.7,0,536,0,508,0C480,0,452,0,424,0C395.3,0,367,0,339,0C310.6,0,282,0,254,0C225.9,0,198,0,169,0C141.2,0,113,0,85,0C56.5,0,28,0,14,0L0,0Z"></path></svg>